<svg width="79" height="71" viewBox="0 0 79 71" fill="none" xmlns="http://www.w3.org/2000/svg">
<path d="M0 35.6477C0 34.8593 0.297552 34.1694 0.929849 33.6109C1.56215 33.0853 2.34322 32.8224 3.16149 32.8224H10.7491C11.6045 32.8224 12.3112 33.0853 12.9063 33.6437C13.4642 34.2022 13.7618 34.8593 13.7618 35.6477C13.7618 36.4362 13.5014 37.0932 12.9435 37.6517C12.3856 38.2102 11.6417 38.473 10.7863 38.473H3.19868C2.34322 38.473 1.59934 38.2102 0.967044 37.6517C0.334747 37.0932 0 36.4362 0 35.6477ZM10.6375 58.4142C10.6375 57.6586 10.935 57.0016 11.4929 56.4102L16.9605 51.7124C17.5184 51.1868 18.2622 50.9568 19.1549 50.9568C20.0476 50.9568 20.7914 51.2196 21.3865 51.7124C21.9816 52.2052 22.2792 52.8294 22.2792 53.585C22.2792 54.3734 21.9816 55.0962 21.3865 55.6875L16.105 60.3525C14.58 61.4038 13.0551 61.4038 11.5301 60.3525C10.935 59.8269 10.6375 59.1698 10.6375 58.4142ZM10.6375 12.9469C10.6375 12.1913 10.935 11.5343 11.4929 10.9429C12.2368 10.3845 13.0179 10.1216 13.8734 10.1216C14.6916 10.1216 15.4355 10.3845 16.0678 10.9101L21.3865 15.7393C21.9816 16.2321 22.2792 16.8892 22.2792 17.6776C22.2792 18.4661 21.9816 19.1231 21.3865 19.6487C20.7914 20.1744 20.0476 20.4372 19.1549 20.4372C18.2622 20.4372 17.5184 20.1744 16.9605 19.6487L11.5301 14.9509C10.935 14.4253 10.6375 13.7354 10.6375 12.9469ZM20.1219 35.6477C20.1219 32.5925 20.9774 29.7343 22.7255 27.1062C24.4736 24.478 26.8169 22.3755 29.8296 20.8314C32.8423 19.2874 36.041 18.5318 39.5 18.5318C42.1036 18.5318 44.5956 18.9917 47.0132 19.9116C49.3936 20.8314 51.4765 22.0469 53.1874 23.591C54.9355 25.135 56.3117 26.9419 57.3159 29.0444C58.3201 31.147 58.8409 33.3809 58.8409 35.6806C58.8409 38.7687 57.9854 41.6268 56.2373 44.255C54.4892 46.8831 52.1459 48.9528 49.1704 50.4969C46.1949 52.0409 42.959 52.7965 39.4628 52.7965C35.9666 52.7965 32.7307 52.0409 29.7552 50.4969C26.7797 48.9528 24.4364 46.8831 22.6883 44.255C21.0146 41.5939 20.1219 38.7358 20.1219 35.6477ZM26.4449 35.6477C26.4449 38.8672 27.7095 41.5939 30.2759 43.8607C32.8051 46.1275 35.8922 47.2774 39.5372 47.2774C43.1822 47.2774 46.2693 46.1275 48.8357 43.8607C51.4021 41.5939 52.7039 38.8672 52.7039 35.6477C52.7039 32.4939 51.4021 29.8 48.8357 27.5332C46.2693 25.2993 43.1822 24.1823 39.5372 24.1823C35.9294 24.1823 32.8423 25.2993 30.3131 27.5332C27.7095 29.8 26.4449 32.4939 26.4449 35.6477ZM36.3385 61.2066C36.3385 60.4182 36.6361 59.7612 37.2684 59.2355C37.9007 58.7099 38.6445 58.4471 39.5 58.4471C40.3927 58.4471 41.1737 58.7099 41.7688 59.2355C42.3639 59.7612 42.6615 60.4182 42.6615 61.2066V67.7442C42.6615 68.5327 42.3639 69.2226 41.7316 69.781C41.0993 70.3395 40.3555 70.6023 39.5 70.6023C38.6445 70.6023 37.8635 70.3395 37.2684 69.781C36.6361 69.2226 36.3385 68.5327 36.3385 67.7442V61.2066ZM36.3385 10.2859V3.58407C36.3385 2.82847 36.6361 2.17143 37.2684 1.61294C37.9007 1.05446 38.6445 0.758789 39.5372 0.758789C40.4298 0.758789 41.1365 1.02161 41.7688 1.58009C42.4011 2.13858 42.6987 2.79562 42.6987 3.55122V10.2859C42.6987 11.0415 42.4011 11.6657 41.7688 12.1913C41.1365 12.717 40.3927 12.9469 39.5372 12.9469C38.6817 12.9469 37.9007 12.6841 37.3056 12.1913C36.7104 11.6985 36.3385 11.0415 36.3385 10.2859ZM56.8696 53.585C56.8696 52.8294 57.1671 52.2052 57.725 51.7452C58.283 51.2196 58.9896 50.9896 59.8079 50.9896C60.7006 50.9896 61.4444 51.2525 62.0395 51.7452L67.4699 56.4431C68.065 57.0016 68.3625 57.6915 68.3625 58.4471C68.3625 59.2027 68.065 59.8597 67.4699 60.3853C65.9821 61.4038 64.4943 61.4038 63.0066 60.3853L57.725 55.7203C57.1671 55.129 56.8696 54.4391 56.8696 53.585ZM56.8696 17.7105C56.8696 16.8892 57.1671 16.2321 57.725 15.7722L63.0066 10.9429C63.6389 10.4173 64.3828 10.1545 65.201 10.1545C66.0937 10.1545 66.8376 10.4173 67.4327 10.9758C68.065 11.5343 68.3625 12.1913 68.3625 12.9469C68.3625 13.7682 68.065 14.4581 67.4699 14.9837L62.0395 19.6816C61.3701 20.2072 60.6262 20.47 59.8079 20.47C58.9524 20.47 58.283 20.2072 57.725 19.6816C57.1671 19.156 56.8696 18.4989 56.8696 17.7105ZM65.2754 35.6477C65.2754 34.8593 65.573 34.2022 66.1681 33.6109C66.7632 33.0853 67.4699 32.8224 68.2881 32.8224H75.8013C76.6568 32.8224 77.4007 33.1181 78.033 33.6766C78.6652 34.2351 79 34.8921 79 35.6477C79 36.4033 78.6652 37.0604 78.033 37.6188C77.4007 38.1773 76.6568 38.4401 75.8013 38.4401H68.2881C67.4327 38.4401 66.6888 38.1773 66.1309 37.6188C65.573 37.0604 65.2754 36.4362 65.2754 35.6477Z" fill="white"/>
</svg>
